<?xml version="1.0" encoding="UTF-8" standalone="no"?>
<svg
   xmlns:dc="http://purl.org/dc/elements/1.1/"
   xmlns:cc="http://creativecommons.org/ns#"
   xmlns:rdf="http://www.w3.org/1999/02/22-rdf-syntax-ns#"
   xmlns:svg="http://www.w3.org/2000/svg"
   xmlns="http://www.w3.org/2000/svg"
   xmlns:sodipodi="http://sodipodi.sourceforge.net/DTD/sodipodi-0.dtd"
   xmlns:inkscape="http://www.inkscape.org/namespaces/inkscape"
   id="logo"
   width="156"
   height="46.219"
   viewBox="0 0 156 46.219"
   version="1.1"
   sodipodi:docname="logo-dark.svg"
   inkscape:version="0.92.5 (2060ec1f9f, 2020-04-08)">
  <metadata
     id="metadata3781">
    <rdf:RDF>
      <cc:Work
         rdf:about="">
        <dc:format>image/svg+xml</dc:format>
        <dc:type
           rdf:resource="http://purl.org/dc/dcmitype/StillImage" />
        <dc:title></dc:title>
      </cc:Work>
    </rdf:RDF>
  </metadata>
  <sodipodi:namedview
     pagecolor="#ffffff"
     bordercolor="#666666"
     borderopacity="1"
     objecttolerance="10"
     gridtolerance="10"
     guidetolerance="10"
     inkscape:pageopacity="0"
     inkscape:pageshadow="2"
     inkscape:window-width="1920"
     inkscape:window-height="1043"
     id="namedview3779"
     showgrid="false"
     inkscape:zoom="0.98530344"
     inkscape:cx="875.08278"
     inkscape:cy="-115.25496"
     inkscape:window-x="0"
     inkscape:window-y="0"
     inkscape:window-maximized="1"
     inkscape:current-layer="logo" />
  <defs
     id="defs3769">
    <style
       id="style3767">
      .cls-1 {
        fill: #21c87a;
        fill-rule: evenodd;
      }

      .cls-2 {
        font-size: 360.127px;
        fill: #333;
        font-family: ArbutusSlab;
      }
    </style>
  </defs>
  <path
     class="cls-1"
     d="M16.047,7.484H11.53v3.811h1.38A5.646,5.646,0,0,1,16.047,7.484Zm15.281,0c1.819,0.816,3.137,3.811,3.137,3.811h1.8V27.469A15.69,15.69,0,0,1,20.622,43.1c-4.3,0-9.237-1.759-12.072-4.593a15.578,15.578,0,0,1-4.6-11.039V11.295H5.688V7.484H2.045L0.139,6.358v21.11A19.376,19.376,0,0,0,5.854,41.2c3.526,3.523,9.415,5.71,14.768,5.71a19.506,19.506,0,0,0,19.46-19.443V7.484H31.329ZM0.673,3.631a4.5,4.5,0,0,0,0,4.728c0.99,1.647,2.1,2.936,5.269,2.936V7.484c-1.661,0-1.644-.473-2.006-1.075a0.782,0.782,0,0,1,0-.828C4.3,4.977,5.282,4.5,6.941,4.5H36.486L35.462,0.693H6.941C3.772,0.693,1.662,1.983.673,3.631Z"
     transform="translate(0 -0.688)"
     id="path3771" />
  <path
     class="cls-1"
     d="M29.919,24.007a10.341,10.341,0,0,0,.864-0.771,10.166,10.166,0,0,0,0-14.387l0,0a10.162,10.162,0,0,0-14.38,0l0,0,0,0a10.166,10.166,0,0,0,0,14.383l0,0a10.108,10.108,0,0,0,.864.772,13.475,13.475,0,0,0-3.116,2.325,13.331,13.331,0,0,0-3.925,9.443v3.875a9.244,9.244,0,0,0,3.812,2.1V35.773a9.587,9.587,0,0,1,9.432-9.556h0.245a9.589,9.589,0,0,1,9.432,9.556v1.063a15.143,15.143,0,0,0,2.833-6.074A13.5,13.5,0,0,0,29.919,24.007Zm-6.248-1.6H23.506a6.34,6.34,0,0,1-4.417-1.855V20.541a6.376,6.376,0,0,1-.007-9l0.007-.007a6.374,6.374,0,0,1,9,.007H28.1A6.367,6.367,0,0,1,23.671,22.4Z"
     transform="translate(0 -0.688)"
     id="path3773" />
  <path
     class="cls-1"
     d="M5.778,15.6L8.2,13.253l2.42,2.343V7.442H5.778V15.6Z"
     transform="translate(0 -0.688)"
     id="path3775" />
  <text
     id="Guruma"
     class="cls-2"
     transform="scale(0.78330452,1.2766427)"
     style="font-style:normal;font-variant:normal;font-weight:normal;font-stretch:normal;font-size:23.03707314px;font-family:sans-serif;-inkscape-font-specification:sans-serif;fill:#333333;stroke-width:0.11031214"
     x="56.03616"
     y="28.337337">
    <tspan
       style="font-style:normal;font-variant:normal;font-weight:normal;font-stretch:normal;font-size:22.6666667px;font-family:'DejaVu Sans Mono';-inkscape-font-specification:'DejaVu Sans Mono';stroke-width:0.11031214"
       id="tspan3783">Course4You</tspan>
  </text>
</svg>
